# xmcd
#
# Track frame offsets:
#	150
#	14624
#	26274
#	37759
#	50887
#	62077
#	72730
#	84242
#	107196
#	122378
#	150338
#	165057
#	177153
#	191776
#	207811
#	231090
#	247692
#	259123
#	272727
#	291775
#	305276
#	322323
#	336954
#
# Disc length: 4723 seconds
#
# Revision: 0
# Processed by: cddbd v1.5.2PL0 Copyright (c) Steve Scherf et al.
# Submitted via: audiograbber 1.83.01
#
DISCID=39127117
DTITLE=B.B. King - Ladies and Gentlemen.... Mr. B.B. King [CD 02) - Rock Me Baby 
DTITLE=(1957-1962)
DYEAR=2012
DGENRE=Blues
TTITLE0=Sweet Little Angel [mono]
TTITLE1=Early In The Morning [mono]
TTITLE2=(I'm Gonna) Quit My Baby [mono]
TTITLE3=On My Word Of Honor [mono]
TTITLE4=Days Of Old [mono]
TTITLE5=Recession Blues [mono]
TTITLE6=Please Accept My Love [mono]
TTITLE7=Everyday I Have The Blues
TTITLE8=Precious Lord
TTITLE9=Sweet Sixteen (Parts 1&2) [mono]
TTITLE10=Don't Get Around Much Anymore
TTITLE11=I'll Survive
TTITLE12=(I've) Got A Right To Love My Baby
TTITLE13=It's My Own Fault [mono]
TTITLE14=You Done Lost Your Good Thing Now
TTITLE15=Walking Dr. Bill [mono]
TTITLE16=Catfish Blues (Fishin' After Me) [mono]
TTITLE17=Partin' Time
TTITLE18=You're Breaking My Heart [mono]
TTITLE19=Rock Me Baby
TTITLE20=Blue Shadows
TTITLE21=The Jungle [mono]
TTITLE22=That Evil Child [mono]
EXTD=
EXTT0=
EXTT1=
EXTT2=
EXTT3=
EXTT4=
EXTT5=
EXTT6=
EXTT7=
EXTT8=
EXTT9=
EXTT10=
EXTT11=
EXTT12=
EXTT13=
EXTT14=
EXTT15=
EXTT16=
EXTT17=
EXTT18=
EXTT19=
EXTT20=
EXTT21=
EXTT22=
PLAYORDER=
